<svg xmlns="http://www.w3.org/2000/svg" width="616.75" height="118.124" viewBox="0 0 616.75 118.124">
  <g id="Watch_Blair_Speak_Button" data-name="Watch Blair Speak Button" transform="translate(-691.672 -5001.604)" opacity="0.9">
    <path id="Path_34" data-name="Path 34" d="M989.69,5056.637c-2.174,0-3.35.706-3.35,2.88v11.166c0,1.528.647,2.409,2.292,2.409h5.407c5.406,0,8.345-2.409,8.345-7.757C1002.384,5059.517,998.976,5056.637,989.69,5056.637Z" fill="#dbe000"/>
    <path id="Path_35" data-name="Path 35" d="M1044.111,5061.75c-7.346.764-8.992,3.761-8.992,6.229,0,2.292,1.411,4.29,4.584,4.29a6.565,6.565,0,0,0,6.758-6.7v-1.939C1046.461,5062.279,1046.05,5061.574,1044.111,5061.75Z" fill="#dbe000"/>
    <path id="Path_36" data-name="Path 36" d="M1300.914,5001.6H699.18a7.508,7.508,0,0,0-7.508,7.508V5112.22a7.507,7.507,0,0,0,7.508,7.508h601.734a7.508,7.508,0,0,0,7.508-7.508V5009.112A7.509,7.509,0,0,0,1300.914,5001.6Zm-236.292,34.465a3.673,3.673,0,1,1,0,7.346,3.673,3.673,0,1,1,0-7.346ZM777.835,5063.6l-42.2,24.295a3.2,3.2,0,0,1-4.8-2.777v-48.591a3.2,3.2,0,0,1,4.8-2.777l42.2,24.295A3.205,3.205,0,0,1,777.835,5063.6Zm73.329-18.015-9.52,24.447a17.2,17.2,0,0,0-1.352,5.348h-3.937l-8.991-22.39-6.581,17.042a16.115,16.115,0,0,0-1.411,5.348h-3.879L804.092,5047c-1.763-4.407-2.526-5.936-5.524-6.464v-1.646h14.457v1.646c-3.584.528-3.526,2-2.527,4.407l8.051,20.509c.412,1,.764,1,1.175,0l4.526-11.753c1.116-2.938,1.292-5.23.352-7.639-1.528-3.7-2.35-5-5.172-5.524v-1.646h14.457v1.646c-3.584.528-3.526,2-2.527,4.407l8.051,20.509c.411,1,.764,1,1.175,0l7.7-20.157c1.057-2.82-.235-4.289-3.82-4.759v-1.646h12.341v1.646C853.691,5041.123,852.34,5042.593,851.164,5045.589Zm29.152,28.091a4.763,4.763,0,0,1-8.638-2.057c0-.647-.47-.764-.941-.118a12.15,12.15,0,0,1-9.167,4.232c-4,0-7.7-1.881-7.7-6.465,0-4.7,3.82-7.757,15.927-9.344,1.351-.176,1.821-.587,1.821-2v-1.057c0-4.232-1.528-6.641-5.289-6.641-6.993,0-1.881,7.64-7.639,7.64a2.827,2.827,0,0,1-3.115-3.056c0-4.525,6.288-6.464,12.4-6.464,6.934,0,9.813,2.761,9.813,10.283v12.048c0,2.057.941,2.644,2.527,2.057Zm19.337-22.331-4.29-.236c-2.7-.117-3.173.353-3.173,2.057v14.4c0,3.408.529,5.583,3.408,5.583a4.61,4.61,0,0,0,3.115-1.117c.764.765.822,1.411.352,1.763a8.113,8.113,0,0,1-5.583,1.881c-4.524,0-7.463-2.41-7.463-7.522v-15.1c0-1.7-.47-2.057-1.528-2.057h-2.7v-1.469a12.615,12.615,0,0,0,7.757-6.347,1.04,1.04,0,0,1,1.058-.646h.7a.85.85,0,0,1,.941.881l-.059,3.879c0,1.234.47,1.586,3.173,1.586h4.29Zm16.751,24.388c-7.288,0-14.1-4.819-14.1-13.576,0-9.108,7.17-13.809,14.515-13.809,6.583,0,10.638,3.761,10.638,7.287a3.05,3.05,0,0,1-3.174,3.29c-2,0-2.938-1.41-3.173-3.114-.294-2.41-1.117-5.466-5.23-5.466-4.585,0-7.111,3.7-7.111,9.344,0,7.64,4.819,12.283,11.048,12.283a7.391,7.391,0,0,0,6.64-3.468l1.235,1C926.687,5071.976,922.75,5075.737,916.4,5075.737Zm45.076-1.94c-.765,1.352-2.586,1.94-4.29,1.94-2.7,0-4.7-1.528-4.7-4.995v-11.166c0-4.349-2.116-7.581-6.053-7.581-3.879,0-6.289,3.232-6.289,7.581v10.695c0,2.469,1,3.232,3.761,3.526v1.587H930.216V5073.8c2.762-.294,3.761-1.057,3.761-3.526v-27.032c0-2.644-.882-3.526-3.761-3.232v-1.587l7.58-1.469c1.529-.294,2.351.411,2.351,1.881v11.459c0,2.115.823,2.762,1.587,1.88a10.526,10.526,0,0,1,8.227-3.878c4.408,0,8.7,2.35,8.7,9.931v12.459c0,2.057,1.117,2.644,2.821,2.233Zm35.262,1.587c-3.937,0-14.4-1.116-21.273,0v-1.646c2.527-.352,3.878-1.116,3.878-3.349v-26.563c0-2.174-1.351-2.938-3.878-3.29v-1.646h17.454c9.4,0,14.573,2.821,14.573,8.521,0,3.879-2.468,6.993-8.52,8.228,7.051,1.057,10.636,4.407,10.636,9.579C1009.612,5071.446,1004.323,5075.384,996.742,5075.384Zm28.563-1.587c-.706,1.352-2.528,1.94-4.232,1.94-2.761,0-4.76-1.528-4.76-4.995v-27.5c0-2.644-.881-3.526-3.761-3.232v-1.587l7.581-1.469c1.528-.294,2.35.411,2.35,1.881v31.851c0,2.057,1.117,2.644,2.822,2.233Zm29.854-.117a4.763,4.763,0,0,1-8.639-2.057c0-.647-.47-.764-.94-.118a12.154,12.154,0,0,1-9.168,4.232c-4,0-7.7-1.881-7.7-6.465,0-4.7,3.819-7.757,15.926-9.344,1.351-.176,1.821-.587,1.821-2v-1.057c0-4.232-1.528-6.641-5.289-6.641-6.993,0-1.881,7.64-7.64,7.64a2.827,2.827,0,0,1-3.114-3.056c0-4.525,6.288-6.464,12.4-6.464,6.934,0,9.813,2.761,9.813,10.283v12.048c0,2.057.941,2.644,2.528,2.057Zm16.926,1.7h-13.693V5073.8c2.762-.294,3.761-1.057,3.761-3.526v-15.455c0-2.7-.881-3.526-3.7-3.291V5050l7.522-1.528c1.528-.294,2.351.411,2.351,1.939v19.863c0,2.469,1,3.232,3.761,3.526Zm23.566-17.924c-4.466,0-1.352-5.759-5.289-5.759-2.938,0-5.407,3.232-5.407,10.578v7.992c0,2.469,1,3.232,4,3.526v1.587h-13.928V5073.8c2.762-.294,3.761-1.057,3.761-3.526v-15.455c0-2.7-.881-3.526-3.761-3.291V5050l7.58-1.528c1.528-.294,2.351.411,2.351,1.822v1.351c0,.94.765,1.117,1.469.353a9.624,9.624,0,0,1,7.228-3.7c3.879,0,5.818,2.526,5.818,5.171A3.686,3.686,0,0,1,1095.651,5057.46Zm31.325,18.512a23.4,23.4,0,0,1-12.165-3.35c-1.7-4.114-1.763-9.109.588-9.109.587,0,.822.235,1.116,1.058,2.057,5.877,6.759,9.167,12.047,9.109,4.291,0,6.641-2.116,6.641-5.7,0-4.936-4.525-6.17-9.7-7.816-6.346-2.056-11.576-5.524-11.576-11.811,0-6.406,5.524-10.4,13.574-10.4a23.08,23.08,0,0,1,11.46,2.88c1.7,4.113,1.763,9.108-.587,9.108-.588,0-.824-.235-1.117-1.058-2-5.817-6.523-8.756-10.99-8.756-4.584,0-6.229,3.056-6.229,5.818,0,4.232,3.526,5.994,8.4,7.522,5.759,1.881,13.4,4.349,13.4,12.106S1134.028,5075.972,1126.976,5075.972Zm36.2-.235c-3.878,0-5.994-1.763-7.052-1.763-.764,0-1.116.705-1.116,2.7v4.819c0,2.409,1,3.173,4.055,3.467v1.586h-13.987v-1.586c2.762-.294,3.761-1.058,3.761-3.467v-26.68c0-2.7-.881-3.526-3.761-3.291V5050l7.581-1.528c1.528-.294,2.351.411,2.351,1.939v.647c0,.823.587,1.175,1.233.47a11.474,11.474,0,0,1,8.052-3.173c6.288,0,11.636,4.936,11.636,13.281C1175.931,5070.8,1169.642,5075.737,1163.178,5075.737Zm30.5,0c-7.346,0-13.928-4.878-13.928-13.634,0-9.05,6.817-13.751,14.163-13.751,6.052,0,10.225,3.173,10.225,7.874,0,4.349-3.644,5.407-10.872,5.759l-4.995.294c-1.117.059-1.528.588-1.528,1.88,0,4.349,4.408,7.875,9.873,7.875a9,9,0,0,0,7.287-3.173l1.234,1.058C1204.022,5072.034,1200.085,5075.737,1193.68,5075.737Zm41.726-2.057a4.763,4.763,0,0,1-8.639-2.057c0-.647-.47-.764-.94-.118a12.154,12.154,0,0,1-9.168,4.232c-4,0-7.7-1.881-7.7-6.465,0-4.7,3.82-7.757,15.926-9.344,1.351-.176,1.822-.587,1.822-2v-1.057c0-4.232-1.529-6.641-5.29-6.641-6.993,0-1.881,7.64-7.64,7.64a2.826,2.826,0,0,1-3.114-3.056c0-4.525,6.288-6.464,12.4-6.464,6.934,0,9.813,2.761,9.813,10.283v12.048c0,2.057.941,2.644,2.528,2.057Zm33.734,1.7h-13.164V5073.8c2.116-.294,2.116-1.292,1.116-2.7l-4.877-7.111c-.7-.94-1.175-1.293-2-1.293-1.293,0-2.233,1.587-2.233,4.114v3.467c0,2.469,1,3.232,3.761,3.526v1.587h-13.692V5073.8c2.761-.294,3.761-1.057,3.761-3.526v-27.032c0-2.644-.882-3.526-3.761-3.232v-1.587l7.58-1.469c1.528-.294,2.351.411,2.351,1.881v20.391c0,1.411,1,1.94,1.88,1.175l7.934-7.051c1.234-1.058.705-2.586-2.351-2.88v-1.587h11.283v1.587c-2.879.294-3.937,1.352-5.994,3.115l-5.407,4.7,8.757,12.517a5.807,5.807,0,0,0,5.054,3Z" fill="#dbe000"/>
    <path id="Path_37" data-name="Path 37" d="M989.984,5054.58h3.35c5.054,0,6.934-3,6.934-6.816,0-4.29-2.233-6.817-7.228-6.817h-3.056c-2.468,0-3.644.705-3.644,2.938v7.816C986.34,5053.876,987.516,5054.58,989.984,5054.58Z" fill="#dbe000"/>
    <path id="Path_38" data-name="Path 38" d="M1161.3,5052.113c-2.763,0-6.288,1.528-6.288,7.7v5.113c0,6.7,4.525,8.873,7.816,8.873,4.349,0,6.757-3.878,6.757-9.638C1169.583,5057.46,1166.293,5052.113,1161.3,5052.113Z" fill="#dbe000"/>
    <path id="Path_39" data-name="Path 39" d="M869.268,5061.75c-7.345.764-8.991,3.761-8.991,6.229,0,2.292,1.411,4.29,4.584,4.29a6.565,6.565,0,0,0,6.758-6.7v-1.939C871.619,5062.279,871.208,5061.574,869.268,5061.75Z" fill="#dbe000"/>
    <path id="Path_40" data-name="Path 40" d="M1188.332,5060.516l3.526-.118c5.054-.294,6.4-1.233,6.4-4.113,0-3.115-1.528-5.936-5.347-5.936-4.643,0-6.523,4.349-6.523,7.875C1186.393,5060.1,1186.98,5060.575,1188.332,5060.516Z" fill="#dbe000"/>
    <path id="Path_41" data-name="Path 41" d="M1224.358,5061.75c-7.346.764-8.991,3.761-8.991,6.229,0,2.292,1.41,4.29,4.583,4.29a6.566,6.566,0,0,0,6.759-6.7v-1.939C1226.709,5062.279,1226.3,5061.574,1224.358,5061.75Z" fill="#dbe000"/>
  </g>
</svg>
