<svg xmlns="http://www.w3.org/2000/svg" width="506.146" height="267.836" viewBox="0 0 506.146 267.836">
  <g id="Meet_Blair_-_Blair_Logo_" data-name="Meet Blair - &quot;Blair Logo&quot;" transform="translate(-415.337 -6528.956)">
    <path id="Path_42" data-name="Path 42" d="M572.046,6587.521c-36.239,54.083-73.754,107.174-116.015,156.764q-19.275,22.62-39.427,44.47c-4.039,4.4,2.518,10.994,6.574,6.574a1479.138,1479.138,0,0,0,123.4-153.977c11.341-16.258,22.458-32.671,33.492-49.138,3.339-4.985-4.711-9.644-8.028-4.693Z" fill="#a3b5ff"/>
    <path id="Path_43" data-name="Path 43" d="M532.9,6565.4c.754-2.016,4.5-3.263,6.191-4.15q3.89-2.037,7.866-3.9,8.416-3.951,17.183-7.067a212.159,212.159,0,0,1,34.516-9.175,194.165,194.165,0,0,1,36.049-2.85c12.457.139,25.211.326,37.171,4.225,9.466,3.085,19.021,9.169,22.335,19.053,3.458,10.314.479,21.695-5.239,30.607-6.082,9.479-15.124,16.741-24.148,23.273-10.163,7.357-20.633,14.3-31.318,20.876q-17.979,11.063-36.817,20.638c-12.219,6.209-25.459,13.959-39.526,14.088l2.346,8.662a146.649,146.649,0,0,1,32.8-13.894c10.311-2.873,22.317-4.576,32.215.611A28.04,28.04,0,0,1,639,6687.783c1.044,9.376-3.375,17.789-9.554,24.5-6.955,7.558-15.2,14.121-23.2,20.536-8.562,6.868-17.517,13.168-27.4,17.991a98.339,98.339,0,0,1-31.567,9.57c-9.988,1.155-23.222,1.976-31.969-3.916-8.275-5.575-10.209-17.043-8.164-26.215,2.624-11.768,10.614-21.514,18.045-30.648,3.745-4.6-2.795-11.219-6.574-6.574-7.931,9.749-16.054,19.825-19.725,32.064-3.009,10.032-2.4,21.967,3.367,30.946,6.891,10.731,19.027,13.7,31.055,14.151a100.031,100.031,0,0,0,38.061-6.152,130.906,130.906,0,0,0,33.131-18.2,275.335,275.335,0,0,0,28.675-24.054c7.967-7.835,14.169-17.168,15.148-28.552.926-10.783-3.728-21.993-11.549-29.375-22.431-21.172-59.466-4.956-81.965,7.791-4.009,2.272-2.246,8.705,2.346,8.663,14.04-.128,26.795-6.709,39.1-12.792q18.924-9.355,37.043-20.23,18.037-10.826,35.162-23.094c10.243-7.357,20.228-15.287,27.46-25.761,6.817-9.875,10.394-22.211,8.5-34.173s-10.207-21.421-20.765-26.882c-11.716-6.06-25.084-7.677-38.1-8.186a233.892,233.892,0,0,0-40.578,1.585,213.3,213.3,0,0,0-44.607,11,219.353,219.353,0,0,0-20.559,8.705c-6.089,2.957-13.348,5.652-15.885,12.441-2.1,5.611,6.887,8.035,8.965,2.471Z" fill="#a3b5ff"/>
    <path id="Path_44" data-name="Path 44" d="M770.47,6548.554q-56.236,81.2-112.112,162.65-15.723,22.918-31.416,45.858c-3.387,4.95,4.666,9.6,8.028,4.692q55.785-81.537,111.931-162.825,15.785-22.852,31.6-45.683c3.414-4.93-4.641-9.583-8.028-4.692Z" fill="#a3b5ff"/>
    <path id="Path_45" data-name="Path 45" d="M770.885,6676.922c5.438-4.209,10.628-9.733,9.357-17.195-1.186-6.961-7.551-10-14.119-9.3-14.09,1.511-26.528,11.192-37.366,19.644a161.392,161.392,0,0,0-17.629,15.481c-4.587,4.8-9.8,10.665-12.052,17.02-2.716,7.657,2.206,12.969,9.87,13.167,8.108.209,15.9-3.254,23.208-6.339a247.7,247.7,0,0,0,25.754-12.609c7.531-4.263,14.8-9.158,20.491-15.757,3.957-4.593-1.954-10.321-6.574-6.574-6.665,5.4-14.369,11.255-17.827,19.372-3.407,8-.947,17.307,8.309,19.451,8.285,1.92,17.76-2.525,24.9-6.354,8-4.294,15.187-9.915,22.35-15.453,2-1.548,1.6-4.941,0-6.574-1.939-1.982-4.6-1.527-6.574,0-9.925,7.674-20.439,15.824-32.833,18.927-2.392.6-6.556,1.485-8.116-1.147-1.413-2.384.683-5.986,2.011-7.972,3.6-5.377,9.391-9.652,14.355-13.676l-6.574-6.574c-7.527,8.736-17.951,14.232-28.094,19.383-5.691,2.89-11.493,5.579-17.405,7.989-4.969,2.025-12.588,5.956-18.092,4.575-1.032-.259-.708.624-.389-.792a10.909,10.909,0,0,1,1.585-2.928,57.335,57.335,0,0,1,4.894-6.8,103.145,103.145,0,0,1,11.72-11.6,206.712,206.712,0,0,1,27.339-19.79c4.248-2.607,9.558-4.985,14.667-4.919,3.038.039,3.783,2.041,2.458,4.7-1.262,2.535-4.019,4.38-6.2,6.065-2,1.549-1.6,4.941,0,6.574,1.938,1.981,4.6,1.529,6.574,0Z" fill="#a3b5ff"/>
    <path id="Path_46" data-name="Path 46" d="M826.349,6660.9c-4.318,3.634-8.125,8.02-11.993,12.112-5.466,5.785-10.889,11.629-16.044,17.695-4.5,5.3-10.635,12.407-5.953,19.62,2.991,4.607,9.187,5.946,14.21,4.487,6.614-1.922,12.531-7.149,18.17-10.922l41.532-27.785c4.949-3.31.3-11.367-4.692-8.028l-31.991,21.4-16.276,10.889c-2.289,1.532-9.712,8.09-12.75,5.233-1.436-1.351.865-4.059,1.444-4.824,1.112-1.466,3.349-4.063,4.942-5.887,4.624-5.3,9.4-10.464,14.234-15.571,3.787-4,7.515-8.291,11.741-11.847,4.584-3.858-2.022-10.405-6.574-6.574Z" fill="#a3b5ff"/>
    <path id="Path_47" data-name="Path 47" d="M857.7,6625.707c-.292-.177-.579-.365-.874-.538-.061-.036-.66-.437-.309-.167-.077-.06-.813-.681-.676-.625s.223.747.112.213.022.269-.027.4a1.853,1.853,0,0,1-.591.976,1.039,1.039,0,0,1-.943.544q-1.058.2-.11.136c-.26-.218-.335-.092.135.05,3.16.953,6.25,2.221,9.332,3.4a142.812,142.812,0,0,1,18.285,8.311,4.65,4.65,0,0,0,4.693-8.028c-8.347-4.63-17.275-8.095-26.216-11.386-1.992-.734-4.06-1.649-6.229-1.647a7.468,7.468,0,0,0-6.764,3.883,8.249,8.249,0,0,0,.156,7.536c1.156,2.222,3.247,3.7,5.333,4.967a4.649,4.649,0,0,0,4.693-8.028Z" fill="#a3b5ff"/>
    <path id="Path_48" data-name="Path 48" d="M859.34,6672.407c-.447,3.973-2.259,7.582-1.933,11.678a17.391,17.391,0,0,0,4.441,10.343c5.432,5.978,14.255,5.91,21.709,5.541,15.57-.772,29.608-7.718,37.307-21.658,2.895-5.241-5.131-9.936-8.027-4.692-5.682,10.285-15.664,15.978-27.274,16.923a74.055,74.055,0,0,1-9.432.146c-2.547-.12-5.26-.44-7.183-2.278-4.5-4.3-.887-10.882-.311-16,.281-2.5-2.337-4.649-4.648-4.649-2.747,0-4.367,2.143-4.649,4.649Z" fill="#a3b5ff"/>
  </g>
</svg>
