<svg xmlns="http://www.w3.org/2000/svg" width="139.253" height="73.688" viewBox="0 0 139.253 73.688">
  <g id="Group_41" data-name="Group 41" transform="translate(-290.808 -43.907)">
    <path id="Path_26" data-name="Path 26" d="M333.922,60.02C323.952,74.9,313.631,89.506,302,103.149q-5.3,6.223-10.848,12.235c-1.111,1.211.693,3.025,1.809,1.808A406.837,406.837,0,0,0,326.916,74.83c3.12-4.473,6.179-8.989,9.215-13.519.919-1.372-1.3-2.653-2.209-1.291Z" fill="#304079"/>
    <path id="Path_27" data-name="Path 27" d="M323.151,53.933c.207-.555,1.237-.9,1.7-1.142q1.069-.56,2.164-1.073,2.316-1.087,4.728-1.945a58.446,58.446,0,0,1,9.5-2.524,53.5,53.5,0,0,1,9.918-.784c3.427.038,6.936.09,10.226,1.162,2.605.849,5.233,2.523,6.145,5.242a10.009,10.009,0,0,1-1.441,8.421,24.994,24.994,0,0,1-6.644,6.4c-2.8,2.024-5.676,3.935-8.616,5.744q-4.947,3.044-10.129,5.678c-3.362,1.708-7,3.84-10.875,3.875l.646,2.384a40.293,40.293,0,0,1,9.025-3.823c2.837-.79,6.14-1.259,8.863.168a7.718,7.718,0,0,1,3.983,5.885,8.638,8.638,0,0,1-2.629,6.741,56.924,56.924,0,0,1-6.383,5.65,40.535,40.535,0,0,1-7.539,4.95,27.049,27.049,0,0,1-8.685,2.633c-2.747.318-6.388.544-8.795-1.077-2.277-1.534-2.809-4.689-2.246-7.213.722-3.237,2.92-5.919,4.965-8.432,1.03-1.266-.769-3.086-1.809-1.808C317.04,91.73,314.8,94.5,313.8,97.869a10.512,10.512,0,0,0,.926,8.514c1.9,2.953,5.235,3.769,8.544,3.894a27.549,27.549,0,0,0,10.472-1.693,36.042,36.042,0,0,0,9.115-5.008,75.786,75.786,0,0,0,7.889-6.617,12.63,12.63,0,0,0,4.167-7.856,10.216,10.216,0,0,0-3.177-8.081c-6.171-5.825-16.36-1.364-22.55,2.143a1.289,1.289,0,0,0,.645,2.383c3.863-.035,7.372-1.845,10.758-3.519q5.2-2.574,10.191-5.566,4.962-2.978,9.674-6.353A30.224,30.224,0,0,0,368,63.022a13.152,13.152,0,0,0,2.338-9.4,10.322,10.322,0,0,0-5.713-7.4,24.712,24.712,0,0,0-10.481-2.253,64.375,64.375,0,0,0-11.164.436,58.723,58.723,0,0,0-12.272,3.027,60.672,60.672,0,0,0-5.657,2.4c-1.675.814-3.672,1.555-4.37,3.423-.576,1.544,1.9,2.211,2.467.68Z" fill="#304079"/>
    <path id="Path_28" data-name="Path 28" d="M388.513,49.3q-15.471,22.34-30.845,44.749-4.324,6.306-8.643,12.616c-.931,1.362,1.284,2.643,2.209,1.291q15.348-22.433,30.795-44.8,4.343-6.287,8.693-12.568c.939-1.357-1.277-2.637-2.209-1.291Z" fill="#304079"/>
    <path id="Path_29" data-name="Path 29" d="M388.627,84.616c1.5-1.158,2.924-2.678,2.575-4.731-.326-1.915-2.078-2.751-3.885-2.557-3.876.415-7.3,3.079-10.28,5.4a44.425,44.425,0,0,0-4.85,4.26,14.381,14.381,0,0,0-3.316,4.682c-.747,2.107.607,3.568,2.715,3.623,2.231.057,4.375-.9,6.386-1.744a68.076,68.076,0,0,0,7.085-3.47,20.725,20.725,0,0,0,5.638-4.335,1.28,1.28,0,0,0-1.809-1.808c-1.834,1.487-3.953,3.1-4.9,5.329-.937,2.2-.26,4.762,2.286,5.352,2.28.528,4.887-.695,6.851-1.748a45.222,45.222,0,0,0,6.149-4.252,1.287,1.287,0,0,0,0-1.808,1.309,1.309,0,0,0-1.809,0c-2.731,2.111-5.623,4.353-9.033,5.207-.658.165-1.8.408-2.233-.316-.389-.656.188-1.647.553-2.193a18.889,18.889,0,0,1,3.95-3.763l-1.809-1.808c-2.071,2.4-4.939,3.915-7.729,5.332-1.566.8-3.162,1.535-4.789,2.2-1.367.557-3.463,1.639-4.977,1.259-.284-.071-.195.172-.108-.218a3,3,0,0,1,.437-.805,15.591,15.591,0,0,1,1.346-1.872,28.49,28.49,0,0,1,3.224-3.191,56.933,56.933,0,0,1,7.522-5.445,7.966,7.966,0,0,1,4.035-1.353c.836.011,1.041.561.677,1.294a5.6,5.6,0,0,1-1.7,1.668,1.286,1.286,0,0,0,0,1.809,1.309,1.309,0,0,0,1.808,0Z" fill="#304079"/>
    <path id="Path_30" data-name="Path 30" d="M403.887,80.208a41.505,41.505,0,0,0-3.3,3.332c-1.5,1.592-3,3.2-4.414,4.868-1.238,1.458-2.926,3.414-1.638,5.4a3.514,3.514,0,0,0,3.91,1.235c1.82-.529,3.447-1.967,5-3l11.426-7.644c1.362-.911.083-3.128-1.291-2.209l-8.8,5.888-4.478,3c-.63.421-2.672,2.226-3.508,1.44-.395-.372.238-1.117.4-1.328.3-.4.921-1.117,1.359-1.619,1.272-1.458,2.587-2.879,3.916-4.284a40.731,40.731,0,0,1,3.231-3.26c1.261-1.061-.557-2.862-1.809-1.808Z" fill="#304079"/>
    <path id="Path_31" data-name="Path 31" d="M412.512,70.526c-.08-.049-.159-.1-.24-.148-.017-.01-.182-.121-.085-.046-.022-.017-.224-.188-.186-.172s.061.2.03.058.006.074-.007.111a.51.51,0,0,1-.163.268.285.285,0,0,1-.259.15q-.291.055-.031.037c-.071-.06-.092-.025.038.014.869.262,1.719.611,2.567.936a39.331,39.331,0,0,1,5.031,2.286,1.279,1.279,0,1,0,1.291-2.208,51.3,51.3,0,0,0-7.213-3.133,5.08,5.08,0,0,0-1.714-.453,2.053,2.053,0,0,0-1.86,1.068,2.269,2.269,0,0,0,.042,2.074,3.722,3.722,0,0,0,1.468,1.366,1.279,1.279,0,1,0,1.291-2.208Z" fill="#304079"/>
    <path id="Path_32" data-name="Path 32" d="M412.963,83.374a16.583,16.583,0,0,0-.532,3.213,4.785,4.785,0,0,0,1.222,2.845c1.495,1.645,3.922,1.626,5.973,1.525,4.284-.213,8.146-2.124,10.264-5.959.8-1.442-1.412-2.734-2.208-1.291a9.113,9.113,0,0,1-7.5,4.656,20.245,20.245,0,0,1-2.6.04,2.947,2.947,0,0,1-1.976-.626c-1.238-1.183-.244-2.994-.086-4.4a1.286,1.286,0,0,0-1.279-1.279,1.309,1.309,0,0,0-1.279,1.279Z" fill="#304079"/>
  </g>
</svg>
